<svg width="342" height="294" viewBox="0 0 342 294" fill="none" xmlns="http://www.w3.org/2000/svg">
<mask id="mask0" mask-type="alpha" maskUnits="userSpaceOnUse" x="0" y="0" width="342" height="294">
<rect width="342" height="294" fill="#C4C4C4"/>
</mask>
<g mask="url(#mask0)">
<mask id="mask1" mask-type="alpha" maskUnits="userSpaceOnUse" x="1" y="0" width="340" height="294">
<path d="M171 0L340.741 294H1.25902L171 0Z" fill="#1DE7DA"/>
</mask>
<g mask="url(#mask1)">
<circle cx="206.5" cy="55.5" r="145.5" fill="#F3F741"/>
</g>
<mask id="mask2" mask-type="alpha" maskUnits="userSpaceOnUse" x="1" y="0" width="340" height="294">
<path d="M171 0L340.741 294H1.25902L171 0Z" fill="#C4C4C4"/>
</mask>
<g mask="url(#mask2)">
<circle cx="39.5" cy="196.5" r="145.5" fill="#D000AD"/>
</g>
<mask id="mask3" mask-type="alpha" maskUnits="userSpaceOnUse" x="1" y="0" width="340" height="294">
<path d="M171 0L340.741 294H1.25902L171 0Z" fill="#C4C4C4"/>
</mask>
<g mask="url(#mask3)">
<circle cx="238.5" cy="299.5" r="145.5" fill="#35DBDB"/>
</g>
<path d="M179.704 222.432C176.568 222.432 173.832 221.792 171.496 220.512C169.192 219.2 167.416 217.328 166.168 214.896C164.92 212.464 164.296 209.6 164.296 206.304C164.296 202.592 165 199.328 166.408 196.512C167.816 193.696 169.816 191.536 172.408 190.032C175 188.496 178.024 187.728 181.48 187.728C183.72 187.728 185.768 188.032 187.624 188.64C189.512 189.216 191.064 189.984 192.28 190.944C193.208 191.552 193.672 192.368 193.672 193.392C193.672 194.096 193.448 194.704 193 195.216C192.584 195.696 192.04 195.936 191.368 195.936C190.792 195.936 190.264 195.76 189.784 195.408C187.48 193.648 184.776 192.768 181.672 192.768C178.184 192.768 175.464 193.984 173.512 196.416C171.56 198.816 170.584 202.128 170.584 206.352C170.584 209.904 171.4 212.64 173.032 214.56C174.696 216.448 177.048 217.392 180.088 217.392C182.84 217.392 185.544 216.512 188.2 214.752C188.744 214.432 189.256 214.272 189.736 214.272C190.344 214.272 190.84 214.496 191.224 214.944C191.608 215.392 191.8 215.936 191.8 216.576C191.8 217.536 191.384 218.336 190.552 218.976C189.336 220 187.768 220.832 185.848 221.472C183.96 222.112 181.912 222.432 179.704 222.432ZM216.039 198.048C216.967 198.048 217.671 198.304 218.151 198.816C218.663 199.296 218.871 199.984 218.775 200.88L217.287 219.552C217.255 220.352 216.935 221.008 216.327 221.52C215.719 222.032 214.967 222.288 214.071 222.288C213.239 222.288 212.583 222.048 212.103 221.568C211.623 221.088 211.399 220.448 211.431 219.648L211.527 218.736C210.695 219.888 209.623 220.784 208.311 221.424C206.999 222.064 205.559 222.384 203.991 222.384C201.431 222.384 199.479 221.68 198.135 220.272C196.791 218.864 196.119 216.816 196.119 214.128C196.119 213.488 196.135 212.992 196.167 212.64L197.079 200.88C197.143 199.984 197.463 199.296 198.039 198.816C198.647 198.304 199.415 198.048 200.343 198.048C201.239 198.048 201.927 198.304 202.407 198.816C202.919 199.296 203.143 199.984 203.079 200.88L202.167 212.256C202.135 212.448 202.119 212.736 202.119 213.12C202.119 216.128 203.495 217.632 206.247 217.632C207.911 217.632 209.223 217.104 210.183 216.048C211.175 214.96 211.751 213.472 211.911 211.584L212.775 200.88C212.871 199.984 213.207 199.296 213.783 198.816C214.391 198.304 215.143 198.048 216.039 198.048ZM245.036 209.232C245.036 209.904 244.844 210.432 244.46 210.816C244.108 211.168 243.644 211.344 243.068 211.344H228.812C228.908 213.456 229.5 215.056 230.588 216.144C231.708 217.232 233.276 217.776 235.292 217.776C236.412 217.776 237.42 217.648 238.316 217.392C239.244 217.104 240.156 216.688 241.052 216.144C241.468 215.92 241.868 215.808 242.252 215.808C242.796 215.808 243.212 216.016 243.5 216.432C243.82 216.816 243.98 217.296 243.98 217.872C243.98 218.8 243.58 219.568 242.78 220.176C241.916 220.816 240.764 221.344 239.324 221.76C237.916 222.176 236.444 222.384 234.908 222.384C232.508 222.384 230.412 221.92 228.62 220.992C226.828 220.032 225.436 218.688 224.444 216.96C223.484 215.232 223.004 213.216 223.004 210.912C223.004 208.416 223.5 206.192 224.492 204.24C225.484 202.256 226.876 200.72 228.668 199.632C230.46 198.512 232.508 197.952 234.812 197.952C238.076 197.952 240.588 198.928 242.348 200.88C244.14 202.832 245.036 205.616 245.036 209.232ZM235.052 202.176C231.66 202.176 229.644 204.16 229.004 208.128H239.948C239.98 206.176 239.564 204.704 238.7 203.712C237.836 202.688 236.62 202.176 235.052 202.176ZM184.528 268.24C184.24 268.24 183.984 268.128 183.76 267.904C183.568 267.68 183.488 267.424 183.52 267.136L185.968 235.984H174.304C174.048 235.984 173.84 235.888 173.68 235.696C173.52 235.504 173.44 235.28 173.44 235.024C173.44 234.8 173.504 234.608 173.632 234.448C173.792 234.256 174 234.16 174.256 234.16H199.744C200.032 234.16 200.256 234.256 200.416 234.448C200.576 234.64 200.656 234.864 200.656 235.12C200.656 235.312 200.576 235.504 200.416 235.696C200.256 235.888 200.064 235.984 199.84 235.984H187.936L185.488 267.328C185.456 267.584 185.344 267.808 185.152 268C184.992 268.16 184.784 268.24 184.528 268.24ZM203.487 268.24C202.815 268.24 202.495 267.872 202.527 267.136L204.303 245.2C204.335 244.88 204.447 244.656 204.639 244.528C204.863 244.368 205.119 244.288 205.407 244.288C206.047 244.288 206.351 244.592 206.319 245.2L204.543 267.136C204.511 267.872 204.159 268.24 203.487 268.24ZM206.031 238.528C205.551 238.528 205.135 238.368 204.783 238.048C204.431 237.728 204.255 237.312 204.255 236.8C204.255 236.256 204.415 235.824 204.735 235.504C205.087 235.184 205.519 235.024 206.031 235.024C206.543 235.024 206.959 235.184 207.279 235.504C207.631 235.824 207.807 236.256 207.807 236.8C207.807 237.312 207.631 237.728 207.279 238.048C206.927 238.368 206.511 238.528 206.031 238.528ZM224.267 244.192C226.219 244.192 227.947 244.656 229.451 245.584C230.955 246.512 232.123 247.824 232.955 249.52C233.787 251.184 234.203 253.136 234.203 255.376C234.203 257.968 233.739 260.24 232.811 262.192C231.915 264.144 230.651 265.664 229.019 266.752C227.387 267.808 225.499 268.336 223.355 268.336C221.403 268.336 219.691 267.888 218.219 266.992C216.779 266.096 215.723 264.848 215.051 263.248L214.091 275.92C214.059 276.24 213.931 276.48 213.707 276.64C213.483 276.8 213.243 276.88 212.987 276.88C212.699 276.88 212.459 276.8 212.267 276.64C212.107 276.48 212.043 276.24 212.075 275.92L214.475 245.344C214.539 244.64 214.907 244.288 215.579 244.288C216.283 244.288 216.603 244.64 216.539 245.344L216.251 248.656C217.019 247.248 218.123 246.16 219.563 245.392C221.035 244.592 222.603 244.192 224.267 244.192ZM223.595 266.368C226.219 266.368 228.267 265.392 229.739 263.44C231.243 261.456 231.995 258.752 231.995 255.328C231.995 252.416 231.291 250.16 229.883 248.56C228.507 246.96 226.571 246.16 224.075 246.16C221.419 246.16 219.339 247.152 217.835 249.136C216.331 251.12 215.579 253.856 215.579 257.344C215.579 260.256 216.267 262.496 217.643 264.064C219.019 265.6 221.003 266.368 223.595 266.368Z" fill="white"/>
</g>
</svg>
