<?xml version="1.0" standalone="no"?>
<!DOCTYPE svg PUBLIC "-//W3C//DTD SVG 20010904//EN"
 "http://www.w3.org/TR/2001/REC-SVG-20010904/DTD/svg10.dtd">
<svg version="1.0" xmlns="http://www.w3.org/2000/svg"
 width="342.000000pt" height="342.000000pt" viewBox="0 0 342.000000 342.000000"
 preserveAspectRatio="xMidYMid meet">
<metadata>
Created by potrace 1.11, written by Peter Selinger 2001-2013
</metadata>
<g transform="translate(0.000000,342.000000) scale(0.100000,-0.100000)"
fill="#000000" stroke="none">
<path d="M1693 3153 c-4 -10 -31 -58 -60 -107 -29 -49 -53 -90 -53 -92 0 -3
-12 -23 -27 -47 -14 -23 -40 -67 -56 -97 -16 -30 -35 -62 -41 -70 -7 -8 -25
-40 -40 -70 -16 -30 -35 -62 -42 -71 -8 -8 -14 -18 -14 -21 0 -4 -103 -183
-412 -718 -50 -85 -124 -213 -165 -285 -41 -71 -78 -137 -84 -145 -5 -8 -56
-98 -115 -200 -58 -102 -120 -210 -139 -240 -18 -30 -44 -75 -57 -100 -48 -85
-320 -555 -349 -602 l-29 -48 1700 0 1700 0 -40 68 c-22 37 -45 74 -50 82 -6
8 -13 22 -17 30 -4 8 -45 79 -91 158 -46 79 -133 230 -194 335 -61 106 -119
208 -131 227 -11 19 -30 54 -43 77 -13 23 -63 108 -110 190 -48 81 -98 168
-112 193 -13 25 -39 70 -57 100 -18 30 -42 71 -53 90 -11 19 -61 107 -112 195
-51 88 -104 180 -117 204 -14 24 -61 104 -104 178 -43 75 -79 137 -79 139 0 3
-11 23 -26 45 -14 22 -34 57 -46 77 -11 20 -78 136 -148 257 -70 121 -135 235
-144 253 -18 36 -33 41 -43 15z"/>
</g>
</svg>
